name C:\Users\u0101727\Documents\MyRepositories\upper-imu-dc\Results\main_tracking\Case_22\SHRUG01_linearAccelerations_groundFrame.mot
datacolumns 4
datarows 70
range 0.71000000 1.40000000
endheader 
time	radius_imu_x	radius_imu_y	radius_imu_z	
          0.71000000	          0.13654577	         10.66802389	          2.20894285	
          0.72000000	          0.20598596	         10.09934492	          0.86015813	
          0.73000000	          0.20924811	          9.78365041	         -0.01061008	
          0.74000000	          0.17050563	          9.60447967	         -0.49141349	
          0.75000000	          0.10491169	          9.50452796	         -0.69718570	
          0.76000000	          0.03431917	          9.45862730	         -0.72434749	
          0.77000000	         -0.02207252	          9.44887660	         -0.65863324	
          0.78000000	         -0.05623517	          9.46649883	         -0.55694032	
          0.79000000	         -0.07689893	          9.50668674	         -0.44220349	
          0.80000000	         -0.10217146	          9.56606244	         -0.31284608	
          0.81000000	         -0.15300597	          9.64127461	         -0.15400450	
          0.82000000	         -0.23954891	          9.73019339	          0.03792785	
          0.83000000	         -0.36086750	          9.82855527	          0.26371279	
          0.84000000	         -0.50404881	          9.93228274	          0.50534028	
          0.85000000	         -0.65576603	         10.03762627	          0.75147994	
          0.86000000	         -0.79909784	         10.14602079	          0.98228625	
          0.87000000	         -0.92260832	         10.25451318	          1.19623460	
          0.88000000	         -1.01401185	         10.36966834	          1.37973524	
          0.89000000	         -1.06365752	         10.49866783	          1.52679813	
          0.90000000	         -1.06032748	         10.64551226	          1.62731592	
          0.91000000	         -0.99096707	         10.81303073	          1.66432931	
          0.92000000	         -0.84328146	         10.99706001	          1.62007495	
          0.93000000	         -0.61048608	         11.18179310	          1.48620082	
          0.94000000	         -0.29632718	         11.34475191	          1.26431164	
          0.95000000	          0.08120178	         11.45846951	          0.97738769	
          0.96000000	          0.49517183	         11.49760884	          0.65575456	
          0.97000000	          0.91320882	         11.44727885	          0.33588952	
          0.98000000	          1.30495174	         11.30719116	          0.04947678	
          0.99000000	          1.64779661	         11.09419627	         -0.18151244	
          1.00000000	          1.92915664	         10.83889291	         -0.34657361	
          1.01000000	          2.14549165	         10.57748852	         -0.44677692	
          1.02000000	          2.29966054	         10.34262097	         -0.49238795	
          1.03000000	          2.39738592	         10.15626995	         -0.49979399	
          1.04000000	          2.44276819	         10.02810455	         -0.48481289	
          1.05000000	          2.43469785	          9.95875159	         -0.45487187	
          1.06000000	          2.36640667	          9.94548420	         -0.40514869	
          1.07000000	          2.22830792	          9.98615438	         -0.32097424	
          1.08000000	          2.01175420	         10.07885534	         -0.18367170	
          1.09000000	          1.71194998	         10.21901120	          0.02404938	
          1.10000000	          1.32920447	         10.39664308	          0.31380435	
          1.11000000	          0.86983714	         10.59604625	          0.68778577	
          1.12000000	          0.34552008	         10.79834604	          1.13503205	
          1.13000000	         -0.22778904	         10.98626513	          1.62926682	
          1.14000000	         -0.83124134	         11.14756029	          2.12832197	
          1.15000000	         -1.44255205	         11.27789411	          2.57555862	
          1.16000000	         -2.03605450	         11.38084778	          2.90789640	
          1.17000000	         -2.58302415	         11.46443609	          3.06955971	
          1.18000000	         -3.05076215	         11.53167363	          3.02475392	
          1.19000000	         -3.40020545	         11.56643541	          2.76471760	
          1.20000000	         -3.58487541	         11.51685795	          2.30797868	
          1.21000000	         -3.55581790	         11.28319232	          1.69911865	
          1.22000000	         -3.27154113	         10.72811957	          0.98646196	
          1.23000000	         -2.73580000	          9.67380044	          0.17515509	
          1.24000000	         -1.91875058	          8.26974689	         -0.95063865	
          1.25000000	         -1.30084941	          6.05310109	         -2.97593282	
          1.26000000	         -0.82102577	          7.18585792	         -2.59667693	
          1.27000000	          1.23735722	          5.04472066	         -2.87120766	
          1.28000000	          2.09463175	          3.47573924	         -3.91920966	
          1.29000000	          1.88842404	          5.24152468	         -4.80941399	
          1.30000000	          1.52475756	          8.92360504	         -6.27874301	
          1.31000000	          1.60676246	         10.15975225	         -5.40792985	
          1.32000000	          1.58699475	         11.42181554	         -4.02122812	
          1.33000000	          2.61755494	         10.06953353	         -3.64180696	
          1.34000000	          3.93911614	          7.42975712	         -4.81567336	
          1.35000000	          4.44295086	          9.82039100	         -5.70920470	
          1.36000000	          6.17593567	          7.61446918	         -7.11370150	
          1.37000000	          6.77503728	          5.93855564	         -7.08463733	
          1.38000000	          6.40553696	          7.22358297	         -6.02027830	
          1.39000000	          5.38621540	          7.89507752	         -4.68509379	
          1.40000000	          4.03531967	          8.36129387	         -3.44516509	
